<?xml version="1.0" standalone="no"?>
<!DOCTYPE svg PUBLIC "-//W3C//DTD SVG 20010904//EN"
 "http://www.w3.org/TR/2001/REC-SVG-20010904/DTD/svg10.dtd">
<svg version="1.0" xmlns="http://www.w3.org/2000/svg"
 width="180.000000pt" height="195.000000pt" viewBox="0 0 180.000000 195.000000"
 preserveAspectRatio="xMidYMid meet">
<metadata>
Created by potrace 1.15, written by Peter Selinger 2001-2017
</metadata>
<g transform="translate(0.000000,195.000000) scale(0.100000,-0.100000)"
fill = "grey" stroke="none">
<path d="M785 1463 c-11 -2 -69 -20 -130 -40   -93 -29 -119 -34 -167 -29 -47 5
-58 3 -58 -9 0 -11 -12 -15 -43 -15 l-43 0 -77 -362 c-43 -200 -77 -366 -77
-370 0 -12 1420 -10 1420 2 0 9 -53 263 -128 608 l-26 122 -43 0 c-31 0 -43 4
-43 15 0 12 -11 14 -57 9 -50 -5 -76 0 -188 36 -103 33 -138 40 -170 35 -52
-9 -62 -9 -110 -2 -22 3 -49 3 -60 0z m89 -49 c14 -5 16 -41 16 -295 0 -312
-1 -316 -51 -263 -13 14 -44 38 -68 52 -84 49 -211 30 -341 -52 -30 -19 -55
-34 -56 -33 -1 1 23 119 52 262 29 143 53 261 54 263 0 1 24 2 53 2 54 0 93
10 197 49 55 20 114 26 144 15z m223 -25 c51 -20 103 -33 151 -36 63 -5 73 -8
77 -27 15 -65 103 -501 102 -503 -1 -1 -27 14 -57 33 -130 82 -257 101 -341
52 -24 -14 -54 -38 -66 -52 -13 -14 -30 -26 -38 -26 -13 0 -15 38 -15 289 0
222 3 291 13 294 34 14 102 5 174 -24z m-682 -71 c-26 -108 -125 -593 -123
-599 4 -11 100 34 167 78 67 44 140 73 186 73 52 0 96 -22 159 -79 30 -28 67
-53 80 -57 30 -7 71 14 116 61 96 101 183 100 354 -5 94 -57 156 -85 156 -70
0 6 -27 140 -61 298 -33 158 -61 294 -62 302 -1 9 7 16 21 18 12 2 22 1 22 -3
0 -7 93 -444 121 -566 10 -48 19 -92 19 -99 0 -9 -16 -11 -63 -8 -64 5 -141
37 -204 85 -108 80 -242 64 -293 -37 -23 -45 -34 -50 -110 -50 -76 0 -87 5
-110 50 -54 106 -172 116 -310 26 -36 -24 -84 -50 -108 -59 -47 -19 -142 -23
-142 -7 0 6 32 157 70 335 39 178 70 327 70 330 0 3 11 5 25 5 21 0 25 -4 20
-22z"/>
</g>
</svg>
